<?xml version="1.0" encoding="utf-8"?>
<!-- Generator: Adobe Illustrator 25.4.1, SVG Export Plug-In . SVG Version: 6.00 Build 0)  -->
<svg version="1.1" id="レイヤー_1" xmlns="http://www.w3.org/2000/svg" xmlns:xlink="http://www.w3.org/1999/xlink" x="0px"
	 y="0px" viewBox="0 0 512 512" style="enable-background:new 0 0 512 512;" xml:space="preserve">
<g>
	<g>
		<ellipse style="fill:#EDEDED;" cx="256" cy="381.1" rx="215.9" ry="90.8"/>
		<path style="fill:#FFF1C9;" d="M81.1,204.5v161.9c0,40.6,78.3,73.5,174.9,73.5c96.6,0,174.9-32.9,174.9-73.5V204.5H81.1z"/>
		<path style="fill:#CEA9F7;" d="M81.2,239.2c0,0.1,0,0.1,0,0.2L81.2,239.2L81.2,239.2L81.2,239.2z"/>
		<path style="fill:#CEA9F7;" d="M430.9,239.2L430.9,239.2c0,0.1,0,0.1,0,0.2V239.2z"/>
		<path style="fill:#A8001D;" d="M81.1,204.5v121.5c0,6.6,6.1,11.9,13.5,11.9c7.5,0,13.6-5.3,13.6-11.9v-27.7
			c0-8.7,8.1-15.8,18-15.8c9.9,0,18,7.1,18,15.8v34.2c0,10.2,9.4,18.4,20.9,18.4c11.6,0,20.9-8.2,20.9-18.4v-35
			c0-9.1,8.4-16.6,18.8-16.6c10.4,0,18.8,7.4,18.8,16.6v22.3c0,5.1,4.7,9.2,10.5,9.2c5.8,0,10.5-4.1,10.5-9.2v-17.7
			c0-6.6,6.1-12,13.6-12c7.5,0,13.6,5.4,13.6,12v30.4c0,10.2,9.4,18.4,20.9,18.4c11.6,0,20.9-8.2,20.9-18.4v-34
			c0-8.6,8-15.6,17.8-15.6c9.8,0,17.8,7,17.8,15.6v24.8c0,5.1,4.7,9.2,10.5,9.2c5.8,0,10.5-4.1,10.5-9.2v-17.4
			c0-4.5,4.2-8.2,9.3-8.2c5.2,0,9.3,3.7,9.3,8.2v26.6c0,10.2,9.4,18.4,20.9,18.4c11.6,0,20.9-8.2,20.9-18.4V205L81.1,204.5z"/>
		<ellipse style="fill:#DE0026;" cx="256" cy="204.5" rx="174.9" ry="73.5"/>
		<path style="fill:#D2E291;" d="M110.6,109.4v77.7c0,11.1,23,9.1,23,0v-77.7C133.6,98.3,110.6,98.3,110.6,109.4z"/>
		<path style="fill:#FF9933;" d="M134.4,91.7c0,17.7-23.8,17.7-23.8,0c0-5.9,11.9-24.7,11.9-24.7S134.4,85.9,134.4,91.7z"/>
		<path style="fill:#D2E291;" d="M245.6,77.2v68c0,10.6,20.1,8.9,20.1,0v-68C265.7,66.6,245.6,66.6,245.6,77.2z"/>
		<path style="fill:#FF9933;" d="M266.4,61.8c0,16.3-20.8,16.3-20.8,0c0-5.1,10.4-21.6,10.4-21.6S266.4,56.6,266.4,61.8z"/>
		<path style="fill:#D2E291;" d="M377.6,109.3V187c0,11.1,23,9.1,23,0v-77.7C400.6,98.2,377.6,98.2,377.6,109.3z"/>
		<path style="fill:#FF9933;" d="M401.4,91.6c0,17.8-23.8,17.8-23.8,0c0-5.9,11.9-24.7,11.9-24.7S401.4,85.8,401.4,91.6z"/>
		<path style="fill:#F3FFB1;" d="M169.7,157.6v94c0,11.9,27.8,9.5,27.8,0v-94C197.5,145.7,169.7,145.7,169.7,157.6z"/>
		<path style="fill:#FF9933;" d="M198.5,136.3c0,19.8-28.8,19.8-28.8,0c0-7.1,14.4-29.9,14.4-29.9S198.5,129.2,198.5,136.3z"/>
		<path style="fill:#F3FFB1;" d="M313.8,157.4v94c0,11.9,27.8,9.5,27.8,0v-94C341.6,145.5,313.8,145.5,313.8,157.4z"/>
		<path style="fill:#FF9933;" d="M342.6,136.1c0,19.7-28.8,19.7-28.8,0c0-7.1,14.4-29.9,14.4-29.9S342.6,129,342.6,136.1z"/>
	</g>
</g>
</svg>
